<svg xmlns="http://www.w3.org/2000/svg" width="340" height="340" viewBox="0 0 340 340">
<g fill="none" stroke="#006EFF" stroke-opacity="1" stroke-width="1.8" stroke-linecap="round" stroke-linejoin="round" vector-effect="non-scaling-stroke">
<g transform="translate(224.58,64.84) rotate(-4) scale(1.348) translate(-12,-12)"><path d="M12 3.4a8.6 8.6 0 0 0-7.3 13.1L3.4 20.6l4.2-1.3A8.6 8.6 0 1 0 12 3.4Z" fill="none"/>
    <path d="M9.2 8.5c-.25.2-.5.55-.5 1.15 0 .6.35 1.45 1.45 2.95 1.35 1.85 2.8 2.45 3.3 2.6.5.15 1 .1 1.3-.1.25-.18.55-.5.65-.8.1-.3 0-.5-.1-.6l-1.35-.85c-.18-.1-.4-.1-.55.08l-.4.42c-.6-.3-1.4-1.05-1.8-1.85l.4-.42c.15-.18.15-.4.05-.58l-.8-1.45c-.1-.2-.38-.28-.6-.28-.28 0-.65.1-.85.3Z" fill="none"/></g>
<g transform="translate(68.85,271.37) rotate(6) scale(1.614) translate(-12,-12)"><ellipse cx="12" cy="12" rx="8.7" ry="8.7" fill="none"/>
    <path d="M9.4 14.6c.55 1 1.6 1.5 2.9 1.5 1.5 0 2.5-.65 2.5-1.75 0-1-.75-1.45-2.4-1.85l-.85-.2c-1.6-.4-2.6-1.05-2.6-2.35 0-1.2 1.1-2 2.7-2 1.25 0 2.15.42 2.7 1.35" fill="none"/></g>
<g transform="translate(67.72,71.02) rotate(-4) scale(1.295) translate(-12,-12)"><path d="M12 4.3c2.2 0 3.6 1.7 3.6 4 0 .55 0 1.1.15 1.55.2.6.85.9 1.45 1.05.5.13.95.3.95.7 0 .55-1 .7-1.05 1.15-.04.35.45.6.95.85.5.25.55.7.05.95-.7.35-1.7.2-2.2.7-.3.3-.25.85-1.05 1-.45.1-1.05-.25-1.8-.25s-1.35.35-1.8.25c-.8-.15-.75-.7-1.05-1-.5-.5-1.5-.35-2.2-.7-.5-.25-.45-.7.05-.95.5-.25.99-.5.95-.85C7.9 13.15 6.9 13 6.9 12.45c0-.4.45-.57.95-.7.6-.15 1.25-.45 1.45-1.05.15-.45.15-1 .15-1.55 0-2.3 1.4-4 3.6-4Z" fill="none"/></g>
<g transform="translate(11.64,191.85) rotate(-6) scale(1.343) translate(-12,-12)"><path d="M21 4.2 2.7 11.4l6.2 2.3 1 6 2.6-3.4" fill="none"/>
    <path d="M21 4.2 8.9 13.7" fill="none"/>
    <path d="m12.5 16.3 6.1-9.4" fill="none"/></g>
<g transform="translate(351.64,191.85) rotate(-6) scale(1.343) translate(-12,-12)"><path d="M21 4.2 2.7 11.4l6.2 2.3 1 6 2.6-3.4" fill="none"/>
    <path d="M21 4.2 8.9 13.7" fill="none"/>
    <path d="m12.5 16.3 6.1-9.4" fill="none"/></g>
<g transform="translate(110.63,193.72) rotate(-19) scale(1.436) translate(-12,-12)"><circle cx="12" cy="12" r="8.7" fill="none"/>
    <path d="M10.3 17.6 12 11c-.35-.7-.35-1.6.1-2.3.9-1.35 3.1-.7 3.1 1.2 0 1.75-1.1 3.2-2.6 3.2-.65 0-1.25-.32-1.5-.85" fill="none"/></g>
<g transform="translate(292.17,325.49) rotate(17) scale(1.172) translate(-12,-12)"><path d="M13.8 16.6a1 1 0 0 0 1.2-.3l.35-.46A2 2 0 0 1 17 15h3a2 2 0 0 1 2 2v3a2 2 0 0 1-2 2A18 18 0 0 1 2 4a2 2 0 0 1 2-2h3a2 2 0 0 1 2 2v3a2 2 0 0 1-.8 1.6l-.47.35a1 1 0 0 0-.29 1.23 14 14 0 0 0 6.36 6.42" fill="none"/></g>
<g transform="translate(292.17,-14.51) rotate(17) scale(1.172) translate(-12,-12)"><path d="M13.8 16.6a1 1 0 0 0 1.2-.3l.35-.46A2 2 0 0 1 17 15h3a2 2 0 0 1 2 2v3a2 2 0 0 1-2 2A18 18 0 0 1 2 4a2 2 0 0 1 2-2h3a2 2 0 0 1 2 2v3a2 2 0 0 1-.8 1.6l-.47.35a1 1 0 0 0-.29 1.23 14 14 0 0 0 6.36 6.42" fill="none"/></g>
<g transform="translate(203.53,193.91) rotate(-41) scale(1.238) translate(-12,-12)"><rect x="3" y="6.2" width="18" height="11.6" rx="3.6" fill="none"/>
    <path d="M10.6 9.4 15.6 12l-5 2.6Z" fill="none"/></g>
<g transform="translate(117.61,5.12) rotate(-11) scale(1.467) translate(-12,-12)"><path d="M21 6.1c-.7.3-1.4.5-2.2.6a3.4 3.4 0 0 0-5.9 3.1 9.7 9.7 0 0 1-7-3.6 3.4 3.4 0 0 0 1.1 4.6c-.6 0-1.1-.2-1.6-.4a3.4 3.4 0 0 0 2.7 3.4c-.5.1-1 .2-1.5.1a3.4 3.4 0 0 0 3.2 2.4A6.9 6.9 0 0 1 3 18.2a9.7 9.7 0 0 0 5.3 1.5c6.3 0 9.8-5.3 9.8-9.8v-.4c.7-.5 1.3-1.1 1.9-1.9Z" fill="none"/></g>
<g transform="translate(117.61,345.12) rotate(-11) scale(1.467) translate(-12,-12)"><path d="M21 6.1c-.7.3-1.4.5-2.2.6a3.4 3.4 0 0 0-5.9 3.1 9.7 9.7 0 0 1-7-3.6 3.4 3.4 0 0 0 1.1 4.6c-.6 0-1.1-.2-1.6-.4a3.4 3.4 0 0 0 2.7 3.4c-.5.1-1 .2-1.5.1a3.4 3.4 0 0 0 3.2 2.4A6.9 6.9 0 0 1 3 18.2a9.7 9.7 0 0 0 5.3 1.5c6.3 0 9.8-5.3 9.8-9.8v-.4c.7-.5 1.3-1.1 1.9-1.9Z" fill="none"/></g>
<g transform="translate(306.14,115.09) rotate(11) scale(1.243) translate(-12,-12)"><path d="M12.6 6.2v8.4a2.7 2.7 0 1 1-2.7-2.7c.35 0 .7.06 1 .17" fill="none"/>
    <path d="M12.6 6.2c.25 1.9 1.6 3.1 3.6 3.2" fill="none"/></g>
<g transform="translate(152.24,122.62) rotate(16) scale(1.179) translate(-12,-12)"><rect x="3.5" y="3.5" width="17" height="17" rx="5" fill="none"/>
    <circle cx="12" cy="12" r="4.3" fill="none"/>
    <circle cx="16.8" cy="7.2" r="0.95" fill="#006EFF" stroke="none"/></g>
<g transform="translate(182.63,284.94) rotate(-12) scale(1.331) translate(-12,-12)"><path d="M14.8 7.4h-1.3c-1.2 0-2.1 1-2.1 2.2V21" fill="none"/>
    <path d="M9.3 12.4h5" fill="none"/></g>
<g transform="translate(262.79,250.09) rotate(-32) scale(1.548) translate(-12,-12)"><path d="M12 3.4a8.6 8.6 0 0 0-7.3 13.1L3.4 20.6l4.2-1.3A8.6 8.6 0 1 0 12 3.4Z" fill="none"/>
    <path d="M9.2 8.5c-.25.2-.5.55-.5 1.15 0 .6.35 1.45 1.45 2.95 1.35 1.85 2.8 2.45 3.3 2.6.5.15 1 .1 1.3-.1.25-.18.55-.5.65-.8.1-.3 0-.5-.1-.6l-1.35-.85c-.18-.1-.4-.1-.55.08l-.4.42c-.6-.3-1.4-1.05-1.8-1.85l.4-.42c.15-.18.15-.4.05-.58l-.8-1.45c-.1-.2-.38-.28-.6-.28-.28 0-.65.1-.85.3Z" fill="none"/></g>
</g></svg>